<?xml version="1.0" encoding="UTF-8" standalone="no"?>
<!-- Created with Inkscape (http://www.inkscape.org/) -->

<svg
   xmlns:dc="http://purl.org/dc/elements/1.1/"
   xmlns:cc="http://creativecommons.org/ns#"
   xmlns:rdf="http://www.w3.org/1999/02/22-rdf-syntax-ns#"
   xmlns:svg="http://www.w3.org/2000/svg"
   xmlns="http://www.w3.org/2000/svg"
   xmlns:sodipodi="http://sodipodi.sourceforge.net/DTD/sodipodi-0.dtd"
   xmlns:inkscape="http://www.inkscape.org/namespaces/inkscape"
   version="1.1"
   id="svg3051"
   xml:space="preserve"
   width="1122.52"
   height="793.70135"
   viewBox="0 0 1122.52 793.70135"
   sodipodi:docname="waving-colored-lines-svg.svg"
   inkscape:version="0.92.4 (5da689c313, 2019-01-14)"><metadata
     id="metadata3057"><rdf:RDF><cc:Work
         rdf:about=""><dc:format>image/svg+xml</dc:format><dc:type
           rdf:resource="http://purl.org/dc/dcmitype/StillImage" /><dc:title></dc:title></cc:Work></rdf:RDF></metadata><defs
     id="defs3055"><clipPath
       clipPathUnits="userSpaceOnUse"
       id="clipPath3067"><path
         d="M 0,595.276 H 841.89 V 0 H 0 Z"
         id="path3065"
         inkscape:connector-curvature="0" /></clipPath></defs><sodipodi:namedview
     pagecolor="#ffffff"
     bordercolor="#666666"
     borderopacity="1"
     objecttolerance="10"
     gridtolerance="10"
     guidetolerance="10"
     inkscape:pageopacity="0"
     inkscape:pageshadow="2"
     inkscape:window-width="1920"
     inkscape:window-height="1018"
     id="namedview3053"
     showgrid="false"
     inkscape:zoom="0.72126445"
     inkscape:cx="733.16481"
     inkscape:cy="282.50387"
     inkscape:window-x="-8"
     inkscape:window-y="-8"
     inkscape:window-maximized="1"
     inkscape:current-layer="g3059" /><g
     id="g3059"
     inkscape:groupmode="layer"
     inkscape:label="abstract-568-publicdomainvectors.org [Converted]"
     transform="matrix(1.3333333,0,0,-1.3333333,0,793.70133)"><g
       id="g3061"><g
         id="g3063"
         clip-path="url(#clipPath3067)"><path
           d="m 0.597,206.769 c 41.12,38.013 73.718,88.821 116.499,128.776 29.65,27.654 69.275,47.842 114.668,51.399 51.958,4.043 113.191,-7.682 182.984,-15.882 75.941,-8.916 160.483,-11.999 237.806,10.565 74.772,21.868 141.4,69.439 190.605,131.753 v -0.096 C 794.705,450.893 729.139,403.002 655.105,380.656 578.298,357.53 493.802,360.231 417.959,369.206 c -69.85,8.273 -131.03,20.416 -183.15,16.936 C 189.5,383.092 149.741,363.458 120.269,336.11 76.228,295.178 43.345,242.316 0.597,203.66 Z"
           style="fill:#ff7500;fill-opacity:1;fill-rule:nonzero;stroke:none"
           id="path3069"
           inkscape:connector-curvature="0" /><path
           d="m 0.597,182.239 c 57.306,41.359 90.119,110.671 143.095,158.038 28.15,25.121 68.878,40.544 113.56,39.937 53.213,-0.748 114.089,-15.889 184.355,-24.679 75.103,-9.386 159.304,-9.233 232.245,17.99 68.363,25.572 126.411,75.061 169.307,137.515 v -0.501 C 800.992,448.149 743.958,398.528 676.392,372.558 603.979,344.796 519.82,344.243 444.818,353.679 c -70.32,8.863 -131.171,24.394 -184.512,25.728 -44.602,1.092 -85.458,-13.74 -113.427,-38.563 C 92.753,292.728 60.263,221.026 0.597,179.596 Z"
           style="fill:#ff0000;fill-opacity:1;fill-rule:nonzero;stroke:none"
           id="path3071"
           inkscape:connector-curvature="0" /><path
           d="m 0.597,162.461 c 79.996,39.921 107.909,129.955 169.79,182.564 26.695,22.645 68.355,33.026 112.452,28.431 54.185,-5.674 114.89,-24.078 185.635,-33.452 74.223,-9.817 158.111,-6.257 226.583,25.454 61.407,28.496 111.245,78.258 148.102,139.462 v -1.026 C 807.003,442.952 758.113,393.281 697.584,364.497 c -67.935,-32.238 -151.781,-36.215 -225.9,-26.351 -70.797,9.444 -131.496,28.238 -185.78,34.5 -44.04,5.064 -85.794,-4.697 -112.318,-27.052 C 110.746,292.517 83.743,199.909 0.597,160.444 Z"
           style="fill:#cca408;fill-opacity:1;fill-rule:nonzero;stroke:none"
           id="path3073"
           inkscape:connector-curvature="0" /><path
           d="m 0.597,147.807 c 3.008,0.84 5.943,1.792 8.796,2.853 48.557,18.137 81.737,57.375 109.95,97.524 27.487,39.126 47.126,76.998 77.841,101.607 25.309,20.241 67.612,25.35 111.342,16.881 54.867,-10.639 115.601,-32.259 186.823,-42.205 73.305,-10.217 156.825,-3.055 220.819,32.96 53.734,30.319 95.836,78.458 126.991,136.566 v -1.686 C 812.66,434.716 771.45,386.909 718.685,356.468 655.239,319.939 571.757,312.35 498.563,322.61 c -71.28,10.014 -132.03,32.015 -186.96,43.249 -43.702,8.926 -86.057,4.461 -111.211,-15.497 -30.629,-24.357 -50,-62.262 -77.294,-101.546 C 95.009,208.409 61.937,168.811 13.195,150.387 9.154,148.864 4.947,147.565 0.597,146.485 Z"
           style="fill:#fba121;fill-opacity:1;fill-rule:nonzero;stroke:none"
           id="path3075"
           inkscape:connector-curvature="0" /><path
           d="m 0.597,139.438 c 14.714,1.003 28.482,3.961 40.634,8.93 50.093,20.553 82.42,62.773 109.546,105.118 25.886,40.429 43.269,78.631 73.298,101.089 24.029,17.929 66.624,17.58 110.238,5.287 55.274,-15.597 116.22,-40.423 187.92,-50.936 72.349,-10.572 155.409,0.341 214.956,40.505 45.284,30.612 80.088,75.056 105.97,127.821 v -2.391 C 817.876,422.882 783.928,379.008 739.693,348.478 680.667,307.833 597.679,296.453 525.448,307.068 c -71.759,10.576 -132.74,35.791 -188.046,51.978 -43.619,12.75 -86.22,13.761 -110.106,-3.898 C 197.348,332.95 180.232,294.705 154.54,254.121 127.549,211.51 95.318,168.934 45.042,148.093 31.859,142.646 16.759,139.565 0.597,138.781 Z"
           style="fill:#4d4f11;fill-opacity:1;fill-rule:nonzero;stroke:none"
           id="path3077"
           inkscape:connector-curvature="0" /><path
           d="m 0.597,135.678 c 26.918,-2.054 52.161,1.344 72.547,10.39 51.624,22.97 83.127,68.166 109.13,112.733 24.329,41.718 39.422,80.341 68.796,100.576 22.899,15.729 65.391,9.788 109.133,-6.352 55.461,-20.486 116.745,-48.575 188.924,-59.646 71.353,-10.904 153.786,3.928 208.989,48.09 36.133,28.968 63.988,67.584 85.043,112.588 v -3.186 C 822.655,406.941 795.618,369.151 760.611,340.52 705.915,295.893 623.574,280.574 552.342,291.521 480.105,302.65 418.778,331.144 363.304,352.206 319.533,368.809 277.079,375.427 254.303,359.951 225.006,339.988 210.194,301.308 186.043,259.436 160.178,214.602 128.765,169.059 76.965,145.795 55.644,136.249 28.975,132.877 0.597,135.467 Z"
           style="fill:#456129;fill-opacity:1;fill-rule:nonzero;stroke:none"
           id="path3079"
           inkscape:connector-curvature="0" /><path
           d="m 0.597,135.183 c 39.015,-7.491 76.596,-4.739 104.53,8.585 53.13,25.414 83.849,73.554 108.706,120.357 22.83,42.998 35.594,82.154 64.331,100.071 21.994,13.665 63.971,2.026 108.03,-18.036 55.496,-25.279 117.178,-56.731 189.834,-68.332 70.324,-11.205 151.929,7.671 202.924,55.714 26.573,25.103 47.674,55.959 64.207,91.055 v -3.888 c -15.993,-33.805 -36.285,-63.627 -61.721,-88.112 -50.485,-48.509 -131.994,-67.866 -202.191,-56.628 -72.711,11.671 -134.446,43.522 -189.94,69.369 -44.11,20.535 -85.99,32.863 -107.898,19.435 C 252.748,347.14 240.263,307.914 217.609,264.762 192.889,217.691 162.274,169.189 108.958,143.49 80.154,129.642 41.033,127.03 0.597,135.312 Z"
           style="fill:#7abd1c;fill-opacity:1;fill-rule:nonzero;stroke:none"
           id="path3081"
           inkscape:connector-curvature="0" /><path
           d="m 0.597,135.342 c 15.219,-5.039 30.353,-8.456 45.111,-10.02 32.913,-3.457 65.766,3.051 91.479,16.136 54.624,27.866 84.572,78.952 108.265,128.002 21.377,44.274 31.803,84.092 59.906,99.574 21.422,11.744 62.408,-5.696 106.93,-29.765 55.433,-29.98 117.533,-64.847 190.651,-76.998 69.264,-11.469 149.846,11.522 196.762,63.379 17.076,18.921 31.448,40.915 43.458,65.292 v -4.401 C 831.739,363.573 818.186,342.766 802.175,324.708 755.749,272.395 675.291,248.912 606.157,260.412 532.982,272.624 470.836,307.911 415.414,338.443 370.833,363 329.998,381.137 308.615,369.613 280.593,354.432 270.446,314.524 249.235,270.098 225.682,220.779 195.828,169.342 141.023,141.182 115.225,127.965 82.22,121.339 49.126,124.773 33.268,126.428 16.973,130.216 0.597,135.852 Z"
           style="fill:#5a3d1b;fill-opacity:1;fill-rule:nonzero;stroke:none"
           id="path3083"
           inkscape:connector-curvature="0" /><path
           d="m 0.597,140.718 c 24.861,-10.784 49.833,-17.757 73.751,-20.001 34.447,-3.211 68.591,4.213 94.968,18.428 56.111,30.324 85.308,84.353 107.818,135.66 19.971,45.547 28.084,86.193 55.521,99.084 21.308,9.951 60.762,-13.359 105.829,-41.54 55.314,-34.586 117.8,-72.954 191.375,-85.64 68.175,-11.695 147.507,15.459 190.499,71.083 8.389,10.871 15.967,22.597 22.801,35.079 v -4.678 c -6.161,-11.08 -12.924,-21.549 -20.338,-31.339 -42.526,-56.075 -121.7,-83.727 -189.744,-72.004 -73.63,12.743 -136.157,51.538 -191.453,86.671 -45.136,28.677 -84.366,52.691 -105.7,42.949 -27.351,-12.569 -35.197,-53.324 -55,-99.025 -22.366,-51.578 -51.471,-105.959 -107.763,-136.578 -26.446,-14.357 -60.753,-21.894 -95.38,-18.701 -25.01,2.311 -51.18,9.772 -77.184,21.347 z"
           style="fill:#ba599e;fill-opacity:1;fill-rule:nonzero;stroke:none"
           id="path3085"
           inkscape:connector-curvature="0" /><path
           d="m 0.597,148.324 c 34.342,-17.994 69.473,-29.482 102.494,-32.227 35.974,-2.951 71.403,5.378 98.427,20.729 57.577,32.801 86.047,89.763 107.357,143.334 18.607,46.824 24.505,88.489 51.179,98.603 21.801,8.196 59.072,-20.975 104.733,-53.36 55.157,-39.124 117.975,-81.06 192.001,-94.26 34.275,-6.096 71.204,-3.965 101.719,8.298 33.16,13.336 61.352,38.611 82.42,70.525 0.752,1.142 1.496,2.292 2.232,3.45 v -4.723 C 822.343,276.676 794.439,251.282 761.497,237.8 731.136,225.391 694.23,223.18 660.009,229.281 585.931,242.549 523.087,284.916 467.938,324.57 422.206,357.465 385.239,387.329 363.335,379.346 336.766,369.58 331.125,327.778 312.673,280.801 291.511,226.959 263.141,169.633 205.371,136.549 178.28,121.055 142.688,112.608 106.532,115.543 72.425,118.329 36.053,130.42 0.597,149.362 Z"
           style="fill:#8f0000;fill-opacity:1;fill-rule:nonzero;stroke:none"
           id="path3087"
           inkscape:connector-curvature="0" /><path
           d="m 0.597,157.827 0.678,-0.41 c 43.34,-26.152 88.768,-42.907 130.659,-45.957 37.49,-2.722 74.199,6.55 101.86,23.042 59.039,35.279 86.796,95.18 106.884,151.024 17.293,48.101 21.183,91.005 46.876,98.129 22.991,6.294 57.367,-28.553 103.638,-65.225 55.007,-43.592 118.073,-89.142 192.534,-102.86 33.811,-6.201 70.537,-3.306 99.766,10.159 23.076,10.645 43.112,27.645 59.667,48.896 v -4.497 c -15.89,-19.87 -34.896,-35.816 -56.682,-46.036 -29.08,-13.604 -65.776,-16.602 -99.532,-10.383 -74.508,13.777 -137.599,59.764 -192.586,103.885 -46.349,37.191 -80.331,72.69 -103.509,66.647 -25.555,-6.754 -29.233,-49.818 -46.367,-98.072 -19.939,-56.116 -47.599,-116.382 -106.828,-151.945 -27.732,-16.63 -64.592,-26.002 -102.267,-23.32 -42.097,3.018 -87.791,19.825 -131.381,46.101 -1.138,0.686 -2.275,1.379 -3.41,2.076 z"
           style="fill:#dd1267;fill-opacity:1;fill-rule:nonzero;stroke:none"
           id="path3089"
           inkscape:connector-curvature="0" /><path
           d="m 0.597,169.322 c 8.028,-5.437 16.122,-10.598 24.28,-15.468 45.559,-27.187 93.228,-44.418 136.904,-47.193 39.058,-2.448 77.066,7.773 105.373,25.439 60.54,37.838 87.563,100.779 106.39,158.97 15.974,49.425 18.225,93.805 42.48,97.649 24.883,3.846 55.609,-36.336 102.512,-77.511 54.848,-48.149 118.076,-97.484 192.979,-111.702 33.307,-6.313 69.812,-2.565 97.689,12.117 12.413,6.535 23.735,15.091 33.955,25.284 v 4.225 c -11.019,-11.359 -23.34,-20.813 -36.932,-27.876 -28.05,-14.527 -64.566,-18.188 -97.934,-11.889 -74.847,14.176 -138.06,63.062 -192.933,110.68 -46.825,40.652 -78.004,80.252 -102.641,76.084 C 388.264,383.9 385.855,339.697 369.729,290.428 350.764,232.508 323.65,169.922 263.284,132.379 235.055,114.844 197.195,104.75 158.317,107.218 c -43.47,2.8 -90.873,19.989 -136.182,47.05 -7.231,4.323 -14.411,8.876 -21.538,13.648 z"
           style="fill:#00a0c6;fill-opacity:1;fill-rule:nonzero;stroke:none"
           id="path3091"
           inkscape:connector-curvature="0" /><path
           d="m 0.597,181.838 c 15.525,-11.489 31.29,-22.008 47.28,-31.457 47.731,-28.176 97.552,-45.911 142.951,-48.39 40.568,-2.197 79.827,8.964 108.754,27.775 61.971,40.338 88.308,106.217 105.89,166.692 14.726,50.714 16.069,96.583 38.264,97.19 27.011,0.631 53.925,-43.862 101.42,-89.47 54.71,-52.526 118.008,-105.533 193.315,-120.254 32.803,-6.387 69.033,-1.756 95.608,14.049 3.109,1.855 6.136,3.849 9.08,5.974 v 3.713 c -3.874,-2.92 -7.89,-5.611 -12.053,-8.058 -26.724,-15.674 -62.996,-20.196 -95.859,-13.815 -75.258,14.662 -138.551,67.229 -193.28,119.233 -47.423,45.076 -74.788,89.106 -101.548,88.039 -22.488,-0.99 -23.895,-46.686 -38.768,-97.245 C 383.916,235.612 357.491,170.092 295.701,130.045 266.846,111.372 227.739,100.332 187.35,102.551 142.156,105.063 92.586,122.736 45.121,150.796 30.074,159.7 15.229,169.556 0.597,180.28 Z"
           style="fill:#f0037f;fill-opacity:1;fill-rule:nonzero;stroke:none"
           id="path3093"
           inkscape:connector-curvature="0" /><path
           d="m 0.597,195.521 c 22.972,-18.308 46.451,-34.619 70.395,-48.63 49.874,-29.19 101.868,-47.402 148.986,-49.587 42.069,-1.939 82.566,10.167 112.102,30.12 63.381,42.855 89.042,111.672 105.386,174.432 13.514,52.011 14.79,99.094 34.089,96.74 10.735,-1.35 21.525,-14.091 35.901,-30.051 18.384,-20.39 39.061,-44.999 64.426,-71.426 54.578,-56.876 117.856,-113.578 193.553,-128.784 26.036,-5.208 54.452,-2.594 77.724,7.488 v 3.053 c -23.908,-11.105 -53.718,-14.106 -80.947,-8.677 -75.647,15.162 -138.941,71.406 -193.53,127.766 -25.34,26.151 -46.012,50.488 -64.425,70.604 -14.385,15.731 -25.327,28.294 -36.034,29.435 -19.69,2.03 -20.926,-44.938 -34.587,-96.795 C 417.149,238.723 391.383,170.271 328.19,127.705 298.699,107.91 258.379,95.897 216.489,97.865 169.574,100.082 117.84,118.24 68.223,147.309 45.237,160.78 22.682,176.379 0.597,193.837 Z"
           style="fill:#ba599e;fill-opacity:1;fill-rule:nonzero;stroke:none"
           id="path3095"
           inkscape:connector-curvature="0" /><path
           d="M 0.597,210.257 C 30.985,184.466 62.223,161.954 94.218,143.384 146.255,113.192 200.406,94.49 249.23,92.602 c 43.566,-1.674 85.275,11.388 115.424,32.477 64.764,45.384 89.784,117.136 104.866,182.185 12.338,53.317 14.28,100.899 29.958,96.3 10.802,-3.211 20.516,-17.331 34.812,-35.22 18.118,-22.687 38.848,-49.58 64.426,-78.312 54.451,-61.209 117.631,-121.589 193.692,-137.29 16.596,-3.404 34.257,-3.244 50.751,0.261 v 2.478 c -17.416,-4.121 -36.296,-4.494 -53.975,-0.874 -76.025,15.627 -139.198,75.592 -193.68,136.274 -25.546,28.46 -46.266,55.08 -64.427,77.487 -14.308,17.656 -24.133,31.617 -34.944,34.6 -16.136,4.381 -17.969,-43.191 -30.449,-96.351 C 450.452,241.84 425.352,170.445 360.755,125.36 330.67,104.414 289.116,91.468 245.726,93.165 197.109,95.112 143.224,113.741 91.434,143.804 60.409,161.835 30.102,183.587 0.597,208.452 Z"
           style="fill:#ff7f00;fill-opacity:1;fill-rule:nonzero;stroke:none"
           id="path3097"
           inkscape:connector-curvature="0" /><path
           d="m 0.597,225.894 c 37.781,-33.839 76.824,-62.921 116.964,-86.035 54.196,-31.197 110.502,-50.365 161.023,-51.975 45.056,-1.405 87.975,12.61 118.719,34.845 66.131,47.927 90.521,122.609 104.335,189.954 6.05,29.468 8.788,54.85 12.425,74.792 2.547,13.928 8.601,23.461 13.441,21.074 10.494,-5.205 19.527,-20.556 33.738,-40.408 17.866,-24.972 38.631,-54.175 64.416,-85.225 54.363,-65.512 117.313,-129.613 193.733,-145.771 7.755,-1.628 15.764,-2.385 23.768,-2.31 v 1.903 c -9.074,-0.316 -18.197,0.423 -26.995,2.272 -76.38,16.095 -139.34,79.769 -193.732,144.759 -25.718,30.789 -46.506,59.703 -64.419,84.396 -14.203,19.621 -23.317,34.819 -33.866,39.787 -4.982,2.338 -11.052,-7.342 -13.674,-21.301 -3.725,-19.922 -6.571,-45.244 -12.678,-74.616 C 483.827,244.965 459.384,170.619 393.395,123.01 362.729,100.907 319.948,87.023 275.07,88.448 224.753,90.101 168.712,109.213 114.764,140.281 75.607,162.857 37.498,191.138 0.597,223.987 Z"
           style="fill:#b3b3b3;fill-opacity:1;fill-rule:nonzero;stroke:none"
           id="path3099"
           inkscape:connector-curvature="0" /><path
           d="m 0.597,242.347 c 45.169,-42.38 92.064,-78.381 140.424,-106.031 56.353,-32.204 114.813,-51.886 167.021,-53.169 46.537,-1.133 90.636,13.854 121.982,37.224 67.481,50.481 91.246,128.101 103.794,197.741 5.455,30.284 7.513,56.154 10.34,76.262 1.906,13.674 7.655,21.953 11.479,19.179 9.844,-7.178 18.553,-23.777 32.673,-45.616 17.614,-27.258 38.444,-58.775 64.398,-92.164 53.512,-68.829 115.161,-135.719 190.451,-153.502 v 1.134 c -10e-4,0.001 -0.002,0.001 -0.003,0.001 -76.725,16.54 -139.39,83.932 -193.686,153.223 -25.927,33.111 -46.733,64.355 -64.402,91.333 -14.113,21.605 -22.857,38.049 -32.799,44.992 -3.921,2.734 -9.735,-5.702 -11.714,-19.406 -2.921,-20.088 -5.06,-45.9 -10.586,-76.085 C 517.263,248.097 493.439,170.822 426.108,120.654 394.841,97.414 350.876,82.552 304.514,83.714 252.509,85.055 194.311,104.66 138.211,136.742 90.843,163.853 44.883,199.004 0.597,240.337 Z"
           style="fill:#456129;fill-opacity:1;fill-rule:nonzero;stroke:none"
           id="path3101"
           inkscape:connector-curvature="0" /><path
           d="m 0.597,259.51 c 52.557,-51.345 107.354,-94.577 164,-126.753 58.507,-33.22 119.121,-53.358 173.006,-54.362 48.016,-0.873 93.318,15.084 125.217,39.615 140.99,108.724 89.576,331.883 121.059,300.567 9.014,-9.029 17.598,-27 31.618,-50.844 17.401,-29.535 38.247,-63.395 64.372,-99.133 46.915,-64.165 99.887,-126.391 163.29,-152.995 v 0.513 c -64.817,25.695 -118.818,88.549 -166.544,153.341 -26.093,35.46 -46.965,69.031 -64.374,98.299 -14.027,23.605 -22.615,41.409 -31.742,50.218 C 548.061,449.112 599.553,226.406 458.898,118.293 427.061,93.898 381.904,78.077 334.062,78.963 280.379,80.002 220.029,100.091 161.771,133.184 106.119,164.817 52.27,207.17 0.597,257.423 Z"
           style="fill:#f53214;fill-opacity:1;fill-rule:nonzero;stroke:none"
           id="path3103"
           inkscape:connector-curvature="0" /><path
           d="M 0.597,277.313 C 60.555,216.637 123.3,165.877 188.292,129.179 248.951,94.944 311.716,74.321 367.269,73.625 c 49.483,-0.574 95.959,16.332 128.424,42.018 70.174,55.584 92.643,139.119 102.677,213.36 4.305,31.927 5.074,58.786 6.224,79.228 0.71,13.178 4.829,19.104 7.635,15.389 8.121,-10.757 16.659,-30.222 30.573,-56.092 17.142,-31.83 38.046,-68.035 64.337,-106.131 40.064,-58.041 84.33,-114.345 136.02,-146.756 v -0.226 c -53.083,31.892 -98.392,88.985 -139.286,147.846 -26.267,37.814 -47.18,73.733 -64.341,105.291 -13.947,25.622 -22.515,44.891 -30.699,55.464 C 583.791,455.051 635.068,229.244 491.762,115.926 459.358,90.379 413.026,73.579 363.715,74.196 308.36,74.923 245.861,95.499 185.454,129.608 121.463,165.764 59.663,215.604 0.597,275.149 Z"
           style="fill:#d59658;fill-opacity:1;fill-rule:nonzero;stroke:none"
           id="path3105"
           inkscape:connector-curvature="0" /><path
           d="M 0.597,295.682 C 67.975,225.354 138.713,166.789 212.104,125.584 274.912,90.328 339.826,69.209 397.04,68.838 c 50.944,-0.305 98.573,17.597 131.606,44.433 71.475,58.161 93.317,144.648 102.095,221.194 3.731,32.755 3.902,60.116 4.199,80.724 0.173,12.939 3.173,17.917 5.744,13.493 7.212,-12.396 15.72,-33.453 29.545,-61.361 16.902,-34.124 37.853,-72.688 64.29,-113.153 27.234,-41.682 57.627,-81.735 92.923,-116.104 5.188,-5.053 10.427,-9.941 15.717,-14.616 v -1.212 c -6.416,5.51 -12.759,11.341 -19.024,17.412 -35.269,34.168 -65.661,73.977 -92.897,115.385 -26.421,40.181 -47.352,78.467 -64.293,112.314 -13.828,27.663 -22.335,48.529 -29.67,60.729 -2.588,4.334 -5.713,-0.752 -5.967,-13.72 -0.384,-20.588 -0.639,-47.89 -4.44,-80.545 C 617.928,257.541 596.016,171.412 524.702,113.555 491.747,86.85 444.247,69.07 393.474,69.412 336.459,69.823 271.794,90.875 209.253,126.014 136.86,166.675 67.089,224.301 0.597,293.461 Z"
           style="fill:#f0037f;fill-opacity:1;fill-rule:nonzero;stroke:none"
           id="path3107"
           inkscape:connector-curvature="0" /><path
           d="M 0.597,314.574 C 5.493,309.317 10.424,304.102 15.389,298.93 85.786,225.645 159.572,164.675 236.038,121.971 300.995,85.694 368.054,64.1 426.916,64.035 c 52.399,-0.028 101.169,18.868 134.752,46.858 72.757,60.753 93.993,150.189 101.508,229.045 3.202,33.583 2.737,61.459 2.195,82.229 -0.346,12.708 1.491,16.858 3.879,11.596 6.327,-13.966 14.815,-36.686 28.526,-66.648 16.701,-36.415 37.66,-77.362 64.232,-120.209 24.164,-38.893 50.792,-76.339 81.151,-109.449 v -2.047 c -31.728,33.788 -59.424,72.307 -84.442,112.365 -26.564,42.561 -47.535,83.219 -64.241,119.364 -13.753,29.709 -22.233,52.23 -28.646,66.015 -2.41,5.158 -4.378,0.914 -4.101,-11.821 0.44,-20.752 0.836,-48.566 -2.434,-82.05 C 651.635,260.703 630.323,171.62 557.715,111.178 524.227,83.309 475.564,64.538 423.337,64.61 364.672,64.714 297.877,86.255 233.17,122.402 157.03,164.965 83.559,225.695 13.475,298.688 c -4.319,4.5 -8.611,9.035 -12.878,13.601 z"
           style="fill:#ff0000;fill-opacity:1;fill-rule:nonzero;stroke:none"
           id="path3109"
           inkscape:connector-curvature="0" /><path
           d="m 0.597,333.939 c 10.138,-11.166 20.422,-22.161 30.849,-32.971 73.076,-75.713 149.536,-138.65 228.646,-182.63 67.107,-37.297 136.304,-59.386 196.805,-59.122 53.847,0.244 103.754,20.14 137.871,49.294 74.016,63.356 94.603,155.745 100.906,236.91 2.652,34.419 1.626,62.816 0.215,83.743 -0.85,12.489 -0.156,15.89 2.037,9.7 5.51,-15.485 13.913,-39.928 27.518,-71.957 16.486,-38.718 37.464,-82.052 64.167,-127.29 16.535,-27.99 34.256,-55.206 53.548,-80.714 v -2.968 c -20.568,26.602 -39.366,55.154 -56.853,84.556 -26.67,44.955 -47.675,87.996 -64.175,126.442 -13.632,31.778 -22.017,56.019 -27.641,71.32 -2.209,6.078 -3.043,2.589 -2.256,-9.926 1.294,-20.91 2.275,-49.243 -0.45,-83.562 C 685.372,263.874 664.696,171.826 590.806,108.794 556.766,79.775 506.98,60.032 453.307,59.794 393.001,59.569 324.07,81.606 257.208,118.773 178.424,162.607 102.27,225.299 29.521,300.723 19.752,310.855 10.11,321.149 0.597,331.595 Z"
           style="fill:#0678b3;fill-opacity:1;fill-rule:nonzero;stroke:none"
           id="path3111"
           inkscape:connector-curvature="0" /></g></g></g></svg>