<?xml version="1.0" encoding="UTF-8" standalone="no"?>
<!-- Created with Inkscape (http://www.inkscape.org/) -->

<svg
   xmlns:dc="http://purl.org/dc/elements/1.1/"
   xmlns:cc="http://creativecommons.org/ns#"
   xmlns:rdf="http://www.w3.org/1999/02/22-rdf-syntax-ns#"
   xmlns:svg="http://www.w3.org/2000/svg"
   xmlns="http://www.w3.org/2000/svg"
   xmlns:sodipodi="http://sodipodi.sourceforge.net/DTD/sodipodi-0.dtd"
   xmlns:inkscape="http://www.inkscape.org/namespaces/inkscape"
   version="1.1"
   id="svg6810"
   xml:space="preserve"
   width="800"
   height="800"
   viewBox="0 0 800 800"
   sodipodi:docname="lines-wavy-publicdomainvectors.org.svg"
   inkscape:version="0.92.4 (5da689c313, 2019-01-14)"><metadata
     id="metadata6816"><rdf:RDF><cc:Work
         rdf:about=""><dc:format>image/svg+xml</dc:format><dc:type
           rdf:resource="http://purl.org/dc/dcmitype/StillImage" /><dc:title></dc:title></cc:Work></rdf:RDF></metadata><defs
     id="defs6814"><clipPath
       clipPathUnits="userSpaceOnUse"
       id="clipPath6826"><path
         d="M 0,600 H 600 V 0 H 0 Z"
         id="path6824"
         inkscape:connector-curvature="0" /></clipPath><linearGradient
       x1="0"
       y1="0"
       x2="1"
       y2="0"
       gradientUnits="userSpaceOnUse"
       gradientTransform="matrix(1993.1235,0,0,-1993.1235,-581.19141,364.48877)"
       spreadMethod="pad"
       id="linearGradient6850"><stop
         style="stop-opacity:1;stop-color:#1aaeec"
         offset="0"
         id="stop6840" /><stop
         style="stop-opacity:1;stop-color:#4253a7"
         offset="0.297753"
         id="stop6842" /><stop
         style="stop-opacity:1;stop-color:#e70c8d"
         offset="0.646067"
         id="stop6844" /><stop
         style="stop-opacity:1;stop-color:#e33c47"
         offset="0.955056"
         id="stop6846" /><stop
         style="stop-opacity:1;stop-color:#e33c47"
         offset="1"
         id="stop6848" /></linearGradient><linearGradient
       x1="0"
       y1="0"
       x2="1"
       y2="0"
       gradientUnits="userSpaceOnUse"
       gradientTransform="matrix(1060.8667,0,0,-1060.8667,45.682617,299.4209)"
       spreadMethod="pad"
       id="linearGradient6876"><stop
         style="stop-opacity:1;stop-color:#1aaeec"
         offset="0"
         id="stop6866" /><stop
         style="stop-opacity:1;stop-color:#4253a7"
         offset="0.297753"
         id="stop6868" /><stop
         style="stop-opacity:1;stop-color:#e70c8d"
         offset="0.646067"
         id="stop6870" /><stop
         style="stop-opacity:1;stop-color:#e33c47"
         offset="0.955056"
         id="stop6872" /><stop
         style="stop-opacity:1;stop-color:#e33c47"
         offset="1"
         id="stop6874" /></linearGradient><linearGradient
       x1="0"
       y1="0"
       x2="1"
       y2="0"
       gradientUnits="userSpaceOnUse"
       gradientTransform="matrix(1048.384,0,0,-1048.384,124.15234,368.45898)"
       spreadMethod="pad"
       id="linearGradient6902"><stop
         style="stop-opacity:1;stop-color:#1aaeec"
         offset="0"
         id="stop6892" /><stop
         style="stop-opacity:1;stop-color:#4253a7"
         offset="0.297753"
         id="stop6894" /><stop
         style="stop-opacity:1;stop-color:#e70c8d"
         offset="0.646067"
         id="stop6896" /><stop
         style="stop-opacity:1;stop-color:#e33c47"
         offset="0.955056"
         id="stop6898" /><stop
         style="stop-opacity:1;stop-color:#e33c47"
         offset="1"
         id="stop6900" /></linearGradient><linearGradient
       x1="0"
       y1="0"
       x2="1"
       y2="0"
       gradientUnits="userSpaceOnUse"
       gradientTransform="matrix(1325.6808,0,0,-1325.6808,-199.07324,305.23584)"
       spreadMethod="pad"
       id="linearGradient6928"><stop
         style="stop-opacity:1;stop-color:#1aaeec"
         offset="0"
         id="stop6918" /><stop
         style="stop-opacity:1;stop-color:#4253a7"
         offset="0.297753"
         id="stop6920" /><stop
         style="stop-opacity:1;stop-color:#e70c8d"
         offset="0.646067"
         id="stop6922" /><stop
         style="stop-opacity:1;stop-color:#e33c47"
         offset="0.955056"
         id="stop6924" /><stop
         style="stop-opacity:1;stop-color:#e33c47"
         offset="1"
         id="stop6926" /></linearGradient><linearGradient
       x1="0"
       y1="0"
       x2="1"
       y2="0"
       gradientUnits="userSpaceOnUse"
       gradientTransform="matrix(1758.0229,0,0,-1758.0229,-575.27979,334.60107)"
       spreadMethod="pad"
       id="linearGradient6954"><stop
         style="stop-opacity:1;stop-color:#1aaeec"
         offset="0"
         id="stop6944" /><stop
         style="stop-opacity:1;stop-color:#4253a7"
         offset="0.297753"
         id="stop6946" /><stop
         style="stop-opacity:1;stop-color:#e70c8d"
         offset="0.646067"
         id="stop6948" /><stop
         style="stop-opacity:1;stop-color:#e33c47"
         offset="0.955056"
         id="stop6950" /><stop
         style="stop-opacity:1;stop-color:#e33c47"
         offset="1"
         id="stop6952" /></linearGradient><linearGradient
       x1="0"
       y1="0"
       x2="1"
       y2="0"
       gradientUnits="userSpaceOnUse"
       gradientTransform="matrix(1497.0647,0,0,-1497.0647,-305.45654,363.95996)"
       spreadMethod="pad"
       id="linearGradient6980"><stop
         style="stop-opacity:1;stop-color:#1aaeec"
         offset="0"
         id="stop6970" /><stop
         style="stop-opacity:1;stop-color:#4253a7"
         offset="0.297753"
         id="stop6972" /><stop
         style="stop-opacity:1;stop-color:#e70c8d"
         offset="0.646067"
         id="stop6974" /><stop
         style="stop-opacity:1;stop-color:#e33c47"
         offset="0.955056"
         id="stop6976" /><stop
         style="stop-opacity:1;stop-color:#e33c47"
         offset="1"
         id="stop6978" /></linearGradient><linearGradient
       x1="0"
       y1="0"
       x2="1"
       y2="0"
       gradientUnits="userSpaceOnUse"
       gradientTransform="matrix(1682.6814,0,0,-1682.6814,-417.15381,392.86865)"
       spreadMethod="pad"
       id="linearGradient7006"><stop
         style="stop-opacity:1;stop-color:#1aaeec"
         offset="0"
         id="stop6996" /><stop
         style="stop-opacity:1;stop-color:#4253a7"
         offset="0.297753"
         id="stop6998" /><stop
         style="stop-opacity:1;stop-color:#e70c8d"
         offset="0.646067"
         id="stop7000" /><stop
         style="stop-opacity:1;stop-color:#e33c47"
         offset="0.955056"
         id="stop7002" /><stop
         style="stop-opacity:1;stop-color:#e33c47"
         offset="1"
         id="stop7004" /></linearGradient><linearGradient
       x1="0"
       y1="0"
       x2="1"
       y2="0"
       gradientUnits="userSpaceOnUse"
       gradientTransform="matrix(1689.2678,0,0,-1689.2678,-404.86426,405.91406)"
       spreadMethod="pad"
       id="linearGradient7032"><stop
         style="stop-opacity:1;stop-color:#1aaeec"
         offset="0"
         id="stop7022" /><stop
         style="stop-opacity:1;stop-color:#4253a7"
         offset="0.297753"
         id="stop7024" /><stop
         style="stop-opacity:1;stop-color:#e70c8d"
         offset="0.646067"
         id="stop7026" /><stop
         style="stop-opacity:1;stop-color:#e33c47"
         offset="0.955056"
         id="stop7028" /><stop
         style="stop-opacity:1;stop-color:#e33c47"
         offset="1"
         id="stop7030" /></linearGradient><linearGradient
       x1="0"
       y1="0"
       x2="1"
       y2="0"
       gradientUnits="userSpaceOnUse"
       gradientTransform="matrix(1729.077,0,0,-1729.077,-518.09717,421.55078)"
       spreadMethod="pad"
       id="linearGradient7058"><stop
         style="stop-opacity:1;stop-color:#1aaeec"
         offset="0"
         id="stop7048" /><stop
         style="stop-opacity:1;stop-color:#4253a7"
         offset="0.297753"
         id="stop7050" /><stop
         style="stop-opacity:1;stop-color:#e70c8d"
         offset="0.646067"
         id="stop7052" /><stop
         style="stop-opacity:1;stop-color:#e33c47"
         offset="0.955056"
         id="stop7054" /><stop
         style="stop-opacity:1;stop-color:#e33c47"
         offset="1"
         id="stop7056" /></linearGradient><linearGradient
       x1="0"
       y1="0"
       x2="1"
       y2="0"
       gradientUnits="userSpaceOnUse"
       gradientTransform="matrix(1670.4382,0,0,-1670.4382,-492.23193,432.05518)"
       spreadMethod="pad"
       id="linearGradient7084"><stop
         style="stop-opacity:1;stop-color:#1aaeec"
         offset="0"
         id="stop7074" /><stop
         style="stop-opacity:1;stop-color:#4253a7"
         offset="0.297753"
         id="stop7076" /><stop
         style="stop-opacity:1;stop-color:#e70c8d"
         offset="0.646067"
         id="stop7078" /><stop
         style="stop-opacity:1;stop-color:#e33c47"
         offset="0.955056"
         id="stop7080" /><stop
         style="stop-opacity:1;stop-color:#e33c47"
         offset="1"
         id="stop7082" /></linearGradient><linearGradient
       x1="0"
       y1="0"
       x2="1"
       y2="0"
       gradientUnits="userSpaceOnUse"
       gradientTransform="matrix(1837.1731,0,0,-1837.1731,-438.24365,359.97754)"
       spreadMethod="pad"
       id="linearGradient7110"><stop
         style="stop-opacity:1;stop-color:#1aaeec"
         offset="0"
         id="stop7100" /><stop
         style="stop-opacity:1;stop-color:#4253a7"
         offset="0.297753"
         id="stop7102" /><stop
         style="stop-opacity:1;stop-color:#e70c8d"
         offset="0.646067"
         id="stop7104" /><stop
         style="stop-opacity:1;stop-color:#e33c47"
         offset="0.955056"
         id="stop7106" /><stop
         style="stop-opacity:1;stop-color:#e33c47"
         offset="1"
         id="stop7108" /></linearGradient><linearGradient
       x1="0"
       y1="0"
       x2="1"
       y2="0"
       gradientUnits="userSpaceOnUse"
       gradientTransform="matrix(1061.0011,0,0,-1061.0011,187.2168,368.66455)"
       spreadMethod="pad"
       id="linearGradient7136"><stop
         style="stop-opacity:1;stop-color:#1aaeec"
         offset="0"
         id="stop7126" /><stop
         style="stop-opacity:1;stop-color:#4253a7"
         offset="0.297753"
         id="stop7128" /><stop
         style="stop-opacity:1;stop-color:#e70c8d"
         offset="0.646067"
         id="stop7130" /><stop
         style="stop-opacity:1;stop-color:#e33c47"
         offset="0.955056"
         id="stop7132" /><stop
         style="stop-opacity:1;stop-color:#e33c47"
         offset="1"
         id="stop7134" /></linearGradient><clipPath
       clipPathUnits="userSpaceOnUse"
       id="clipPath7146"><path
         d="M 0.406738,600 H 601.388 V -1.3877 H 0.406738 Z"
         id="path7144"
         inkscape:connector-curvature="0" /></clipPath><linearGradient
       x1="0"
       y1="0"
       x2="1"
       y2="0"
       gradientUnits="userSpaceOnUse"
       gradientTransform="matrix(1996.1826,0,0,-1996.1826,-604.4248,363.19482)"
       spreadMethod="pad"
       id="linearGradient7162"><stop
         style="stop-opacity:1;stop-color:#1aaeec"
         offset="0"
         id="stop7152" /><stop
         style="stop-opacity:1;stop-color:#4253a7"
         offset="0.297753"
         id="stop7154" /><stop
         style="stop-opacity:1;stop-color:#e70c8d"
         offset="0.646067"
         id="stop7156" /><stop
         style="stop-opacity:1;stop-color:#e33c47"
         offset="0.955056"
         id="stop7158" /><stop
         style="stop-opacity:1;stop-color:#e33c47"
         offset="1"
         id="stop7160" /></linearGradient><linearGradient
       x1="0"
       y1="0"
       x2="1"
       y2="0"
       gradientUnits="userSpaceOnUse"
       gradientTransform="matrix(1062.9641,0,0,-1062.9641,23.408691,299.30615)"
       spreadMethod="pad"
       id="linearGradient7178"><stop
         style="stop-opacity:1;stop-color:#1aaeec"
         offset="0"
         id="stop7168" /><stop
         style="stop-opacity:1;stop-color:#4253a7"
         offset="0.297753"
         id="stop7170" /><stop
         style="stop-opacity:1;stop-color:#e70c8d"
         offset="0.646067"
         id="stop7172" /><stop
         style="stop-opacity:1;stop-color:#e33c47"
         offset="0.955056"
         id="stop7174" /><stop
         style="stop-opacity:1;stop-color:#e33c47"
         offset="1"
         id="stop7176" /></linearGradient><linearGradient
       x1="0"
       y1="0"
       x2="1"
       y2="0"
       gradientUnits="userSpaceOnUse"
       gradientTransform="matrix(1049.9932,0,0,-1049.9932,101.99902,352.01758)"
       spreadMethod="pad"
       id="linearGradient7194"><stop
         style="stop-opacity:1;stop-color:#1aaeec"
         offset="0"
         id="stop7184" /><stop
         style="stop-opacity:1;stop-color:#4253a7"
         offset="0.297753"
         id="stop7186" /><stop
         style="stop-opacity:1;stop-color:#e70c8d"
         offset="0.646067"
         id="stop7188" /><stop
         style="stop-opacity:1;stop-color:#e33c47"
         offset="0.955056"
         id="stop7190" /><stop
         style="stop-opacity:1;stop-color:#e33c47"
         offset="1"
         id="stop7192" /></linearGradient><linearGradient
       x1="0"
       y1="0"
       x2="1"
       y2="0"
       gradientUnits="userSpaceOnUse"
       gradientTransform="matrix(1327.7151,0,0,-1327.7151,-221.72266,303.99414)"
       spreadMethod="pad"
       id="linearGradient7210"><stop
         style="stop-opacity:1;stop-color:#1aaeec"
         offset="0"
         id="stop7200" /><stop
         style="stop-opacity:1;stop-color:#4253a7"
         offset="0.297753"
         id="stop7202" /><stop
         style="stop-opacity:1;stop-color:#e70c8d"
         offset="0.646067"
         id="stop7204" /><stop
         style="stop-opacity:1;stop-color:#e33c47"
         offset="0.955056"
         id="stop7206" /><stop
         style="stop-opacity:1;stop-color:#e33c47"
         offset="1"
         id="stop7208" /></linearGradient><linearGradient
       x1="0"
       y1="0"
       x2="1"
       y2="0"
       gradientUnits="userSpaceOnUse"
       gradientTransform="matrix(1760.724,0,0,-1760.724,-598.50586,333.54102)"
       spreadMethod="pad"
       id="linearGradient7226"><stop
         style="stop-opacity:1;stop-color:#1aaeec"
         offset="0"
         id="stop7216" /><stop
         style="stop-opacity:1;stop-color:#4253a7"
         offset="0.297753"
         id="stop7218" /><stop
         style="stop-opacity:1;stop-color:#e70c8d"
         offset="0.646067"
         id="stop7220" /><stop
         style="stop-opacity:1;stop-color:#e33c47"
         offset="0.955056"
         id="stop7222" /><stop
         style="stop-opacity:1;stop-color:#e33c47"
         offset="1"
         id="stop7224" /></linearGradient><linearGradient
       x1="0"
       y1="0"
       x2="1"
       y2="0"
       gradientUnits="userSpaceOnUse"
       gradientTransform="matrix(1499.3621,0,0,-1499.3621,-328.27002,362.5957)"
       spreadMethod="pad"
       id="linearGradient7242"><stop
         style="stop-opacity:1;stop-color:#1aaeec"
         offset="0"
         id="stop7232" /><stop
         style="stop-opacity:1;stop-color:#4253a7"
         offset="0.297753"
         id="stop7234" /><stop
         style="stop-opacity:1;stop-color:#e70c8d"
         offset="0.646067"
         id="stop7236" /><stop
         style="stop-opacity:1;stop-color:#e33c47"
         offset="0.955056"
         id="stop7238" /><stop
         style="stop-opacity:1;stop-color:#e33c47"
         offset="1"
         id="stop7240" /></linearGradient><linearGradient
       x1="0"
       y1="0"
       x2="1"
       y2="0"
       gradientUnits="userSpaceOnUse"
       gradientTransform="matrix(1685.2682,0,0,-1685.2682,-440.13818,390.81543)"
       spreadMethod="pad"
       id="linearGradient7258"><stop
         style="stop-opacity:1;stop-color:#1aaeec"
         offset="0"
         id="stop7248" /><stop
         style="stop-opacity:1;stop-color:#4253a7"
         offset="0.297753"
         id="stop7250" /><stop
         style="stop-opacity:1;stop-color:#e70c8d"
         offset="0.646067"
         id="stop7252" /><stop
         style="stop-opacity:1;stop-color:#e33c47"
         offset="0.955056"
         id="stop7254" /><stop
         style="stop-opacity:1;stop-color:#e33c47"
         offset="1"
         id="stop7256" /></linearGradient><linearGradient
       x1="0"
       y1="0"
       x2="1"
       y2="0"
       gradientUnits="userSpaceOnUse"
       gradientTransform="matrix(1691.8593,0,0,-1691.8593,-427.83057,409.0127)"
       spreadMethod="pad"
       id="linearGradient7274"><stop
         style="stop-opacity:1;stop-color:#1aaeec"
         offset="0"
         id="stop7264" /><stop
         style="stop-opacity:1;stop-color:#4253a7"
         offset="0.297753"
         id="stop7266" /><stop
         style="stop-opacity:1;stop-color:#e70c8d"
         offset="0.646067"
         id="stop7268" /><stop
         style="stop-opacity:1;stop-color:#e33c47"
         offset="0.955056"
         id="stop7270" /><stop
         style="stop-opacity:1;stop-color:#e33c47"
         offset="1"
         id="stop7272" /></linearGradient><linearGradient
       x1="0"
       y1="0"
       x2="1"
       y2="0"
       gradientUnits="userSpaceOnUse"
       gradientTransform="matrix(1731.7264,0,0,-1731.7264,-541.23584,417.61523)"
       spreadMethod="pad"
       id="linearGradient7290"><stop
         style="stop-opacity:1;stop-color:#1aaeec"
         offset="0"
         id="stop7280" /><stop
         style="stop-opacity:1;stop-color:#4253a7"
         offset="0.297753"
         id="stop7282" /><stop
         style="stop-opacity:1;stop-color:#e70c8d"
         offset="0.646067"
         id="stop7284" /><stop
         style="stop-opacity:1;stop-color:#e33c47"
         offset="0.955056"
         id="stop7286" /><stop
         style="stop-opacity:1;stop-color:#e33c47"
         offset="1"
         id="stop7288" /></linearGradient><linearGradient
       x1="0"
       y1="0"
       x2="1"
       y2="0"
       gradientUnits="userSpaceOnUse"
       gradientTransform="matrix(1673.0004,0,0,-1673.0004,-515.33105,415.50781)"
       spreadMethod="pad"
       id="linearGradient7306"><stop
         style="stop-opacity:1;stop-color:#1aaeec"
         offset="0"
         id="stop7296" /><stop
         style="stop-opacity:1;stop-color:#4253a7"
         offset="0.297753"
         id="stop7298" /><stop
         style="stop-opacity:1;stop-color:#e70c8d"
         offset="0.646067"
         id="stop7300" /><stop
         style="stop-opacity:1;stop-color:#e33c47"
         offset="0.955056"
         id="stop7302" /><stop
         style="stop-opacity:1;stop-color:#e33c47"
         offset="1"
         id="stop7304" /></linearGradient><linearGradient
       x1="0"
       y1="0"
       x2="1"
       y2="0"
       gradientUnits="userSpaceOnUse"
       gradientTransform="matrix(1839.9934,0,0,-1839.9934,-461.26025,382.56689)"
       spreadMethod="pad"
       id="linearGradient7322"><stop
         style="stop-opacity:1;stop-color:#1aaeec"
         offset="0"
         id="stop7312" /><stop
         style="stop-opacity:1;stop-color:#4253a7"
         offset="0.297753"
         id="stop7314" /><stop
         style="stop-opacity:1;stop-color:#e70c8d"
         offset="0.646067"
         id="stop7316" /><stop
         style="stop-opacity:1;stop-color:#e33c47"
         offset="0.955056"
         id="stop7318" /><stop
         style="stop-opacity:1;stop-color:#e33c47"
         offset="1"
         id="stop7320" /></linearGradient><linearGradient
       x1="0"
       y1="0"
       x2="1"
       y2="0"
       gradientUnits="userSpaceOnUse"
       gradientTransform="matrix(1062.6306,0,0,-1062.6306,165.16016,352.22266)"
       spreadMethod="pad"
       id="linearGradient7338"><stop
         style="stop-opacity:1;stop-color:#1aaeec"
         offset="0"
         id="stop7328" /><stop
         style="stop-opacity:1;stop-color:#4253a7"
         offset="0.297753"
         id="stop7330" /><stop
         style="stop-opacity:1;stop-color:#e70c8d"
         offset="0.646067"
         id="stop7332" /><stop
         style="stop-opacity:1;stop-color:#e33c47"
         offset="0.955056"
         id="stop7334" /><stop
         style="stop-opacity:1;stop-color:#e33c47"
         offset="1"
         id="stop7336" /></linearGradient></defs><sodipodi:namedview
     pagecolor="#ffffff"
     bordercolor="#666666"
     borderopacity="1"
     objecttolerance="10"
     gridtolerance="10"
     guidetolerance="10"
     inkscape:pageopacity="0"
     inkscape:pageshadow="2"
     inkscape:window-width="1920"
     inkscape:window-height="1018"
     id="namedview6812"
     showgrid="false"
     inkscape:zoom="0.8606701"
     inkscape:cx="484.74576"
     inkscape:cy="411.86441"
     inkscape:window-x="-8"
     inkscape:window-y="-8"
     inkscape:window-maximized="1"
     inkscape:current-layer="g6818" /><g
     id="g6818"
     inkscape:groupmode="layer"
     inkscape:label="lines-wavy-publicdomainvectors.org"
     transform="matrix(1.3333333,0,0,-1.3333333,0,800)"><g
       id="g6820"><g
         id="g6822"
         clip-path="url(#clipPath6826)"><g
           id="g6828"><g
             id="g6830"><g
               id="g6836"><g
                 id="g6838"><path
                   d="m 550.61,600 c -2.824,-13.987 -5.601,-27.974 -8.413,-41.845 C 523.422,465.729 500.186,375.736 457.123,330.397 408.639,279.483 338.143,285.35 264.834,289.693 196.088,293.702 139.161,283.396 93.766,243.602 61.654,215.416 32.183,174.421 0.407,131.142 v -2.164 c 32.124,43.756 61.844,85.294 94.242,113.815 45.343,39.832 102.138,50.344 170.644,46.644 72.924,-3.99 143.145,-9.572 191.465,41.342 42.957,45.366 66.185,135.2 84.937,227.521 2.802,13.823 5.57,27.76 8.382,41.7 z"
                   style="fill:url(#linearGradient6850);stroke:none"
                   id="path6852"
                   inkscape:connector-curvature="0" /></g></g></g></g><g
           id="g6854"><g
             id="g6856"><g
               id="g6862"><g
                 id="g6864"><path
                   d="m 74.691,-1.158 c 28.247,44.954 52.149,87.105 74.846,122.797 27.283,42.93 54.067,77.657 82.276,102.439 30.394,26.664 59.841,40.793 87.453,53.998 29.904,14.322 56.007,27.229 76.443,48.769 l 0.041,0.043 c 0.014,0.017 0.031,0.029 0.047,0.045 22.318,22.052 44.66,56.108 62.812,110.123 12.598,37.495 21.907,79.584 30.516,125.673 2.296,12.329 4.52,24.758 6.697,37.271 h 0.883 c -2.179,-12.467 -4.39,-24.855 -6.695,-37.133 -8.621,-46.071 -17.932,-88.15 -30.541,-125.65 C 441.285,383.131 418.875,349.024 396.447,326.998 376.002,305.517 348.748,292.165 318.754,278.146 290.797,265.078 261.031,251.169 230.359,224.554 202.002,199.938 175.113,165.289 147.721,122.465 124.77,86.546 100.585,44.072 71.937,-1.158 Z"
                   style="fill:url(#linearGradient6876);stroke:none"
                   id="path6878"
                   inkscape:connector-curvature="0" /></g></g></g></g><g
           id="g6880"><g
             id="g6882"><g
               id="g6888"><g
                 id="g6890"><path
                   d="m 509.135,600 c -2.064,-11.51 -4.145,-22.916 -6.299,-34.176 -6.848,-35.719 -13.859,-68.649 -22.764,-99.941 -12.015,-42.341 -32.816,-94.438 -62.093,-126.865 -30.483,-33.755 -65.098,-46.197 -94.895,-55.837 -8.533,-2.776 -16.41,-5.182 -24.016,-7.658 -9.599,-3.174 -19.109,-6.479 -27.466,-9.724 -17.967,-6.986 -35.961,-15.616 -53.122,-27.085 -30.732,-20.551 -60.694,-52.087 -94.328,-100.818 0.63,-0.349 1.264,-0.688 1.908,-0.978 33.512,48.773 63.331,80.42 93.899,101.13 17.029,11.539 34.877,20.238 52.68,27.377 8.269,3.306 17.683,6.667 27.175,9.908 7.461,2.545 15.206,4.975 23.602,7.771 29.379,9.831 63.586,22.417 93.807,56.014 29.168,32.443 49.929,84.445 61.937,126.73 8.893,31.29 15.906,64.23 22.746,99.963 2.152,11.264 4.229,22.673 6.286,34.189 z"
                   style="fill:url(#linearGradient6902);stroke:none"
                   id="path6904"
                   inkscape:connector-curvature="0" /></g></g></g></g><g
           id="g6906"><g
             id="g6908"><g
               id="g6914"><g
                 id="g6916"><path
                   d="m 522.423,600 c -2.133,-11.411 -4.269,-22.733 -6.46,-33.917 -6.512,-33.151 -13.635,-66.745 -22.258,-97.635 -12.994,-46.597 -33.613,-98.557 -64.142,-131.035 -34.282,-36.402 -74.911,-46.332 -110.995,-53.124 -10.334,-1.948 -20.525,-3.638 -30.222,-5.472 -10.75,-2.056 -21.836,-4.4 -32.037,-6.958 -20.301,-5.197 -40.518,-12.308 -59.68,-23.004 C 163.758,230.488 131.869,199.499 96.049,150.47 68.82,113.388 42.335,71.301 9.916,27.431 6.798,23.21 3.63,18.979 0.407,14.749 v -4.277 c 3.939,5.156 7.798,10.309 11.581,15.45 32.383,43.983 58.831,86.156 86.001,123.342 35.724,49.067 67.489,80.15 100.208,98.703 19.037,10.74 39.098,18.033 59.227,23.361 10.099,2.629 21.088,5.041 31.724,7.198 9.538,1.873 19.579,3.672 29.768,5.676 35.623,7.063 75.816,17.212 109.828,53.46 30.424,32.493 51.026,84.338 64.008,130.876 8.621,30.884 15.455,62.966 22.248,97.649 2.182,11.149 4.306,22.437 6.426,33.813 z"
                   style="fill:url(#linearGradient6928);stroke:none"
                   id="path6930"
                   inkscape:connector-curvature="0" /></g></g></g></g><g
           id="g6932"><g
             id="g6934"><g
               id="g6940"><g
                 id="g6942"><path
                   d="m 536.383,600 c -2.442,-12.532 -4.862,-24.99 -7.328,-37.302 -11.25,-56.084 -23.731,-112.912 -43.571,-159.758 -19.277,-45.154 -57.795,-93.389 -109.781,-108.269 -27.728,-7.893 -56.168,-8.955 -83.201,-10.302 -26.188,-1.315 -54.873,-2.87 -82.307,-9.598 C 166.676,264.156 125.268,237.59 82.156,184.57 55.626,151.813 29.258,112.442 0.407,73.493 v -4.291 c 29.614,39.919 56.571,80.409 83.677,113.992 43.011,53.035 84.25,79.755 127.539,90.665 27.209,6.889 55.625,8.709 81.533,10.244 26.666,1.544 54.748,2.885 82.151,10.868 51.611,15.139 89.964,63.222 109.191,108.239 19.84,46.795 32.334,103.605 43.568,159.696 2.451,12.243 4.853,24.631 7.276,37.094 z"
                   style="fill:url(#linearGradient6954);stroke:none"
                   id="path6956"
                   inkscape:connector-curvature="0" /></g></g></g></g><g
           id="g6958"><g
             id="g6960"><g
               id="g6966"><g
                 id="g6968"><path
                   d="m 550.873,600 c -2.551,-12.687 -5.051,-25.311 -7.564,-37.768 C 537.76,534.754 531.9,506.667 525.203,479.938 508.984,415.305 488.885,363.643 457.389,330.384 414.74,285.398 357.943,283.729 304.496,287.057 249.072,290.461 195.273,298.909 140.497,274.895 92.964,253.502 56.16,206.766 27.664,168.857 18.713,157.057 9.653,144.735 0.407,132.202 v -4.282 c 9.917,13.458 19.615,26.697 29.185,39.341 28.467,37.948 65.242,84.662 112.657,106.256 54.45,24.18 107.831,16.292 162.69,13.401 52.848,-2.856 109.122,-0.799 151.502,43.997 31.422,33.238 51.534,84.776 67.748,149.314 6.717,26.717 12.571,54.811 18.116,82.299 2.491,12.359 4.968,24.883 7.492,37.472 z"
                   style="fill:url(#linearGradient6980);stroke:none"
                   id="path6982"
                   inkscape:connector-curvature="0" /></g></g></g></g><g
           id="g6984"><g
             id="g6986"><g
               id="g6992"><g
                 id="g6994"><path
                   d="m 565.708,600 c -3.24,-15.635 -6.373,-31.267 -9.513,-46.717 -2.115,-10.42 -4.25,-20.798 -6.431,-31.125 -13.389,-62.897 -30.237,-135.243 -64.741,-182.932 -46.5,-63.767 -113.072,-62.428 -180.447,-51.167 -20.096,3.384 -41.15,7.705 -60.738,10.93 -18.168,3.057 -36.227,5.469 -53.584,6.316 -30.417,1.416 -58.867,-2.123 -85.997,-15.134 C 63.701,270.411 31.313,231.17 0.407,189.963 v -4.226 c 31.482,42.101 64.357,82.521 105.685,102.809 27.045,13.046 55.369,16.818 85.615,15.592 17.234,-0.687 35.15,-3.026 53.186,-5.856 19.375,-3.063 40.189,-7.189 60.058,-10.321 66.713,-10.623 132.737,-11.57 179.039,51.891 34.467,47.597 51.369,119.824 64.756,182.668 2.184,10.327 4.317,20.711 6.436,31.129 3.116,15.327 6.222,30.836 9.433,46.351 z"
                   style="fill:url(#linearGradient7006);stroke:none"
                   id="path7008"
                   inkscape:connector-curvature="0" /></g></g></g></g><g
           id="g7010"><g
             id="g7012"><g
               id="g7018"><g
                 id="g7020"><path
                   d="m 601.159,555.327 c -1.158,-5.901 -2.313,-11.863 -3.473,-17.888 -5.788,-30.054 -11.543,-61.156 -18.34,-92.113 -15.278,-68.455 -36.028,-140.269 -82.52,-174.049 -31.908,-22.842 -70.681,-24.283 -113.219,-14.275 -57.681,13.56 -119.123,47.147 -175.125,74.063 -84.256,40.392 -152.039,61.921 -204.701,22.526 -1.133,-0.86 -2.258,-1.737 -3.374,-2.633 v -3.522 c 1.704,1.399 3.427,2.757 5.17,4.072 52.734,39.22 120.301,18.128 204.095,-21.463 55.478,-26.286 116.342,-59.148 173.5,-72.262 42.236,-9.754 80.783,-8.151 112.566,14.583 46.422,33.683 67.26,105.216 82.575,173.507 6.814,30.917 12.591,61.996 18.396,92.038 1.485,7.709 2.963,15.312 4.45,22.819 z"
                   style="fill:url(#linearGradient7032);stroke:none"
                   id="path7034"
                   inkscape:connector-curvature="0" /></g></g></g></g><g
           id="g7036"><g
             id="g7038"><g
               id="g7044"><g
                 id="g7046"><path
                   d="m 580.696,600 c -3.534,-16.711 -6.958,-33.747 -10.469,-51.174 -4.428,-21.947 -9.002,-44.54 -13.977,-66.666 -14.527,-63.899 -32.637,-127.655 -68.904,-167.348 -22.084,-24.066 -48.711,-35.924 -77.836,-39.281 -39.018,-4.498 -80.973,5.49 -122.533,17.351 -20.852,5.925 -44.514,13.263 -64.776,18.578 -18.666,4.954 -37.096,9.112 -54.704,11.545 -30.887,4.173 -59.061,2.803 -85.292,-7.926 -30.65,-12.923 -56.872,-37.82 -81.798,-67.926 v -4.051 c 25.496,31.056 52.266,56.846 83.654,70.172 26.166,10.768 54.241,12.33 84.978,8.35 17.504,-2.245 35.807,-6.289 54.35,-11.074 20.07,-5.106 43.476,-12.207 64.109,-17.9 41.148,-11.376 82.688,-21.022 121.357,-16.369 28.944,3.472 55.434,15.34 77.436,39.319 36.215,39.624 54.393,103.193 68.926,166.998 4.994,22.105 9.566,44.7 14,66.651 3.48,17.277 6.876,34.172 10.378,50.751 z"
                   style="fill:url(#linearGradient7058);stroke:none"
                   id="path7060"
                   inkscape:connector-curvature="0" /></g></g></g></g><g
           id="g7062"><g
             id="g7064"><g
               id="g7070"><g
                 id="g7072"><path
                   d="m 595.65,600 c -4.088,-18.931 -8.012,-38.616 -11.777,-57.688 -8.143,-41.136 -16.23,-83.54 -27.527,-124.38 C 541.137,363.666 514.758,298.374 464.191,274.859 432.203,260.194 394.482,261.991 355.201,271.536 308.174,282.857 254.914,306.811 210.68,323.13 139.868,349.404 80.631,361.256 30.838,327.291 20.195,319.85 10.115,310.939 0.407,300.94 v -3.81 c 10.28,10.741 20.963,20.287 32.28,28.18 49.782,33.885 108.803,22.444 179.221,-3.198 43.819,-15.845 96.543,-39.154 143.1,-50.092 38.971,-9.185 76.408,-10.807 108.209,3.823 50.428,23.549 76.832,88.546 92.062,142.659 11.33,40.771 19.442,83.145 27.594,124.266 3.745,18.913 7.636,38.435 11.69,57.232 z"
                   style="fill:url(#linearGradient7084);stroke:none"
                   id="path7086"
                   inkscape:connector-curvature="0" /></g></g></g></g><g
           id="g7088"><g
             id="g7090"><g
               id="g7096"><g
                 id="g7098"><path
                   d="M 601.159,478.072 C 588.912,409.968 576.037,336.914 539.713,284.621 522.129,259.779 484.594,229.637 427.156,237.108 357.447,246.16 275.832,297.444 203.219,339.476 134.425,379.179 82.692,403.896 43.451,405.14 27.324,405.628 13.069,401.959 0.407,395.652 v -3.131 c 13.12,6.82 27.962,10.856 44.847,10.392 39.182,-1.167 90.73,-25.498 159.146,-64.488 71.955,-41.207 152.862,-91.469 222.006,-100.191 57.16,-7.224 94.574,22.744 112.151,47.437 37.315,53.44 50.002,128.828 62.602,198.335 z"
                   style="fill:url(#linearGradient7110);stroke:none"
                   id="path7112"
                   inkscape:connector-curvature="0" /></g></g></g></g><g
           id="g7114"><g
             id="g7116"><g
               id="g7122"><g
                 id="g7124"><path
                   d="m 485.005,600 c -1.983,-12.031 -3.991,-23.901 -6.077,-35.601 -1.799,-10.028 -3.639,-19.982 -5.571,-29.835 -11.511,-58.635 -27.63,-117.366 -50.199,-159.507 -22.578,-42.258 -51.834,-67.388 -73.941,-82.434 -11.682,-7.94 -21.352,-13.568 -30.946,-19.701 -13.66,-8.742 -29.138,-19.148 -43.251,-30.628 -27.936,-22.663 -57.106,-55.175 -87.803,-104.509 0.578,-0.14 1.152,-0.316 1.728,-0.456 30.53,49.354 59.491,81.986 87.215,104.791 13.754,11.359 29.453,22.114 42.742,30.788 9.358,6.1 18.807,11.713 30.25,19.613 21.83,15.076 50.805,40.196 73.25,82.281 22.524,42.136 38.623,100.843 50.119,159.47 l 5.565,29.861 c 2.094,11.786 4.108,23.744 6.098,35.867 z"
                   style="fill:url(#linearGradient7136);stroke:none"
                   id="path7138"
                   inkscape:connector-curvature="0" /></g></g></g></g><g
           id="g7140"><g
             id="g7142" /><g
             id="g7462"><g
               clip-path="url(#clipPath7146)"
               id="g7460"
               style="opacity:0.08000183"><g
                 id="g7348"><g
                   id="g7346"><g
                     id="g7344"><g
                       id="g7342"><path
                         d="M 536.073,600 C 530.737,574.933 525.767,549.567 520.686,524.576 501.882,432.302 478.609,342.458 435.48,297.194 386.922,246.363 316.317,252.221 242.896,256.557 174.045,260.559 117.031,250.27 71.566,210.541 47.04,189.083 24.053,160.188 0.407,128.517 v -2.127 c 23.964,32.171 47.218,61.56 72.043,83.344 45.413,39.766 102.295,50.26 170.906,46.567 73.037,-3.983 143.365,-9.557 191.759,41.274 43.023,45.291 66.287,134.977 85.069,227.146 5.071,24.94 10.029,50.255 15.347,75.279 z"
                         style="fill:url(#linearGradient7162);stroke:none"
                         id="path7340"
                         inkscape:connector-curvature="0" /></g></g></g></g><g
                 id="g7358"><g
                   id="g7356"><g
                     id="g7354"><g
                       id="g7352"><path
                         d="m 480.935,600 c -1.88,-10.978 -3.732,-21.808 -5.602,-32.455 -2.249,-12.848 -4.532,-25.616 -6.915,-38.265 -8.634,-45.994 -17.959,-88.004 -30.588,-125.443 -18.211,-53.996 -40.656,-88.046 -63.118,-110.037 -20.477,-21.446 -47.773,-34.776 -77.813,-48.772 -28,-13.046 -57.811,-26.932 -88.53,-53.504 C 179.968,166.95 153.038,132.359 125.604,89.604 108.211,62.473 90.113,31.595 69.905,-1.388 h 2.611 c 19.893,32.685 37.744,63.265 54.907,90.168 27.325,42.86 54.149,77.53 82.401,102.27 30.442,26.62 59.934,40.725 87.588,53.908 29.95,14.3 56.094,27.186 76.561,48.689 l 0.041,0.043 c 0.013,0.018 0.031,0.03 0.047,0.045 22.352,22.016 44.728,56.016 62.909,109.942 12.617,37.433 21.939,79.452 30.562,125.466 2.367,12.671 4.657,25.45 6.902,38.316 1.866,10.675 3.714,21.534 5.588,32.541 z"
                         style="fill:url(#linearGradient7178);stroke:none"
                         id="path7350"
                         inkscape:connector-curvature="0" /></g></g></g></g><g
                 id="g7368"><g
                   id="g7366"><g
                     id="g7364"><g
                       id="g7362"><path
                         d="m 493.58,600 c -4.107,-22.945 -8.068,-45.638 -12.316,-67.768 -6.858,-35.66 -13.88,-68.535 -22.798,-99.775 -12.034,-42.272 -32.867,-94.283 -62.19,-126.656 -30.529,-33.7 -65.197,-46.121 -95.04,-55.746 -8.546,-2.771 -16.435,-5.173 -24.052,-7.645 -9.615,-3.17 -19.139,-6.469 -27.509,-9.708 -17.995,-6.974 -36.016,-15.591 -53.203,-27.041 -30.78,-20.516 -60.787,-51.999 -94.473,-100.651 0.631,-0.348 1.266,-0.686 1.91,-0.975 33.564,48.693 63.428,80.286 94.044,100.962 17.055,11.52 34.93,20.204 52.76,27.331 8.283,3.301 17.711,6.656 27.218,9.893 7.472,2.54 15.228,4.966 23.637,7.758 29.424,9.814 63.684,22.379 93.952,55.921 29.212,32.39 50.005,84.307 62.032,126.521 8.906,31.239 15.93,64.124 22.781,99.798 4.241,22.132 8.191,44.827 12.281,67.781 z"
                         style="fill:url(#linearGradient7194);stroke:none"
                         id="path7360"
                         inkscape:connector-curvature="0" /></g></g></g></g><g
                 id="g7378"><g
                   id="g7376"><g
                     id="g7374"><g
                       id="g7372"><path
                         d="m 507.197,600 c -4.322,-22.784 -8.442,-45.418 -12.786,-67.51 -6.521,-33.096 -13.655,-66.634 -22.292,-97.473 -13.014,-46.52 -33.665,-98.394 -64.241,-130.819 -34.334,-36.343 -75.025,-46.256 -111.165,-53.037 -10.349,-1.944 -20.556,-3.631 -30.269,-5.462 -10.766,-2.053 -21.869,-4.393 -32.086,-6.947 -20.332,-5.189 -40.58,-12.288 -59.771,-22.966 C 141.665,197.45 109.727,166.513 73.853,117.563 50.257,85.532 27.219,49.761 0.407,12.331 V 7.988 c 27.666,38.568 51.242,75.43 75.388,108.372 35.779,48.986 67.593,80.017 100.363,98.538 19.066,10.723 39.157,18.005 59.317,23.325 10.115,2.624 21.12,5.031 31.774,7.185 9.551,1.87 19.607,3.666 29.813,5.667 35.677,7.051 75.932,17.184 109.997,53.371 30.47,32.44 51.103,84.2 64.106,130.66 8.634,30.834 15.479,62.863 22.282,97.488 4.328,22.055 8.432,44.653 12.731,67.406 z"
                         style="fill:url(#linearGradient7210);stroke:none"
                         id="path7370"
                         inkscape:connector-curvature="0" /></g></g></g></g><g
                 id="g7388"><g
                   id="g7386"><g
                     id="g7384"><g
                       id="g7382"><path
                         d="M 521.518,600 C 516.71,576.176 512.2,552.382 507.523,529.112 496.256,473.12 483.756,416.385 463.886,369.617 444.579,324.538 406.002,276.382 353.936,261.526 c -27.771,-7.88 -56.254,-8.94 -83.329,-10.285 -26.228,-1.313 -54.957,-2.865 -82.433,-9.581 C 144.588,231.063 103.116,204.54 59.938,151.608 40.359,127.511 20.869,99.828 0.407,71.372 v -4.29 c 21.175,29.482 41.277,58.225 61.462,83.152 43.077,52.948 84.38,79.622 127.735,90.515 27.251,6.877 55.71,8.694 81.658,10.227 26.707,1.542 54.833,2.879 82.277,10.849 51.69,15.114 90.103,63.119 109.359,108.062 19.871,46.717 32.383,103.434 43.635,159.432 4.657,23.199 9.144,46.92 13.921,70.681 z"
                         style="fill:url(#linearGradient7226);stroke:none"
                         id="path7380"
                         inkscape:connector-curvature="0" /></g></g></g></g><g
                 id="g7398"><g
                   id="g7396"><g
                     id="g7394"><g
                       id="g7392"><path
                         d="M 536.307,600 C 531.236,576.09 526.54,552.072 521.799,528.646 516.241,501.213 510.373,473.172 503.666,446.488 487.422,381.962 467.291,330.385 435.747,297.181 393.033,252.27 336.149,250.603 282.62,253.925 227.111,257.322 173.229,265.757 118.369,241.783 70.763,220.426 33.902,173.767 5.362,135.922 3.714,133.755 2.063,131.572 0.407,129.373 v -4.182 c 2.303,3.076 4.598,6.122 6.887,9.136 28.51,37.886 65.342,84.522 112.829,106.08 54.534,24.141 107.997,16.265 162.94,13.378 52.929,-2.85 109.29,-0.797 151.735,43.925 31.471,33.185 51.612,84.637 67.852,149.069 6.727,26.673 12.59,54.72 18.143,82.162 4.718,23.324 9.383,47.24 14.413,71.059 z"
                         style="fill:url(#linearGradient7242);stroke:none"
                         id="path7390"
                         inkscape:connector-curvature="0" /></g></g></g></g><g
                 id="g7408"><g
                   id="g7406"><g
                     id="g7404"><g
                       id="g7402"><path
                         d="m 551.454,600 c -5.953,-26.689 -11.34,-53.759 -16.749,-80.288 -2.118,-10.402 -4.256,-20.764 -6.441,-31.074 -13.41,-62.792 -30.283,-135.02 -64.84,-182.63 -46.571,-63.662 -113.245,-62.325 -180.724,-51.083 -20.127,3.379 -41.214,7.691 -60.832,10.912 -18.196,3.053 -36.282,5.46 -53.666,6.307 -30.464,1.413 -58.957,-2.121 -86.129,-15.111 C 51.08,241.981 24.85,215.605 0.407,185.673 v -4.042 c 24.98,30.877 51.751,58.242 83.504,73.78 27.086,13.026 55.454,16.791 85.746,15.566 17.261,-0.686 35.205,-3.02 53.268,-5.845 19.405,-3.059 40.251,-7.178 60.15,-10.305 66.816,-10.605 132.941,-11.552 179.315,51.806 34.519,47.519 51.448,119.627 64.855,182.367 2.187,10.31 4.322,20.677 6.445,31.077 5.384,26.402 10.742,53.342 16.652,79.923 z"
                         style="fill:url(#linearGradient7258);stroke:none"
                         id="path7400"
                         inkscape:connector-curvature="0" /></g></g></g></g><g
                 id="g7418"><g
                   id="g7416"><g
                     id="g7414"><g
                       id="g7412"><path
                         d="M 596.802,600 C 589.186,569.544 582.794,537.731 576.26,503.895 570.463,473.89 564.698,442.839 557.892,411.934 542.591,343.591 521.809,271.896 475.245,238.172 443.288,215.366 404.455,213.928 361.853,223.92 304.082,237.456 242.546,270.988 186.458,297.86 111.859,333.509 50.154,354.441 0.407,331.645 v -2.967 c 50.069,24.112 112.15,3.532 187.243,-31.835 55.563,-26.243 116.52,-59.051 173.766,-72.144 42.302,-9.738 80.907,-8.137 112.739,14.559 46.493,33.628 67.364,105.042 82.701,173.221 6.826,30.867 12.612,61.894 18.425,91.887 6.505,33.653 12.872,65.308 20.443,95.634 z"
                         style="fill:url(#linearGradient7274);stroke:none"
                         id="path7410"
                         inkscape:connector-curvature="0" /></g></g></g></g><g
                 id="g7428"><g
                   id="g7426"><g
                     id="g7424"><g
                       id="g7422"><path
                         d="m 566.689,600 c -6.355,-27.355 -12.02,-55.494 -17.931,-84.738 -4.435,-21.91 -9.016,-44.466 -13.998,-66.556 -14.549,-63.793 -32.687,-127.444 -69.01,-167.073 -22.118,-24.025 -48.786,-35.863 -77.955,-39.215 -39.078,-4.491 -81.098,5.481 -122.722,17.322 -20.884,5.915 -44.582,13.241 -64.875,18.547 -18.694,4.946 -37.152,9.097 -54.788,11.526 -30.934,4.166 -59.152,2.798 -85.423,-7.913 -21.708,-9.124 -41.198,-24.225 -59.58,-42.917 v -3.753 c 18.936,19.551 39.01,35.376 61.439,44.869 26.206,10.75 54.324,12.309 85.109,8.335 17.53,-2.24 35.861,-6.278 54.433,-11.055 20.101,-5.097 43.543,-12.187 64.208,-17.869 41.211,-11.359 82.814,-20.989 121.544,-16.344 28.987,3.467 55.518,15.315 77.553,39.255 36.271,39.558 54.477,103.023 69.033,166.723 5.002,22.068 9.581,44.626 14.021,66.541 5.878,29.084 11.513,57.083 17.824,84.315 z"
                         style="fill:url(#linearGradient7290);stroke:none"
                         id="path7420"
                         inkscape:connector-curvature="0" /></g></g></g></g><g
                 id="g7438"><g
                   id="g7436"><g
                     id="g7434"><g
                       id="g7432"><path
                         d="m 581.875,600 c -2.627,-10.888 -5.089,-21.795 -7.427,-32.599 -4.177,-19.222 -8.182,-39.249 -12.022,-58.642 C 554.271,467.691 546.17,425.357 534.855,384.584 519.624,330.408 493.204,265.224 442.561,241.748 410.522,227.106 372.744,228.9 333.402,238.43 286.303,249.732 232.961,273.646 188.659,289.938 117.739,316.17 58.411,328.002 8.542,294.093 5.794,292.178 3.083,290.165 0.407,288.062 v -3.433 c 3.276,2.634 6.603,5.134 9.986,7.486 49.858,33.83 108.97,22.407 179.497,-3.193 43.885,-15.819 96.691,-39.09 143.319,-50.01 39.03,-9.169 76.525,-10.789 108.375,3.817 50.505,23.511 76.95,88.4 92.204,142.424 11.348,40.704 19.471,83.009 27.636,124.061 3.853,19.401 7.862,39.444 12.044,58.683 2.301,10.639 4.721,21.378 7.301,32.103 z"
                         style="fill:url(#linearGradient7306);stroke:none"
                         id="path7430"
                         inkscape:connector-curvature="0" /></g></g></g></g><g
                 id="g7448"><g
                   id="g7446"><g
                     id="g7444"><g
                       id="g7442"><path
                         d="m 601.388,557.524 c -4.582,-21.189 -8.854,-43.229 -13.011,-65.789 -0.603,-3.286 -1.212,-6.573 -1.813,-9.864 L 582.99,462.512 C 569.567,389.683 557.791,308.312 518.197,251.493 500.587,226.692 462.994,196.6 405.468,204.059 335.652,213.095 253.912,264.295 181.187,306.258 112.288,345.895 60.475,370.571 21.173,371.814 13.877,372.034 6.964,371.407 0.407,370.073 v -2.64 c 7.092,1.596 14.605,2.375 22.572,2.157 39.242,-1.165 90.87,-25.456 159.391,-64.382 72.066,-41.14 153.097,-91.317 222.347,-100.025 57.248,-7.213 94.72,22.706 112.323,47.358 39.621,56.563 51.518,137.75 64.981,210.462 1.192,6.449 2.387,12.899 3.586,19.349 0.605,3.282 1.215,6.569 1.815,9.858 4.45,24.06 9.023,47.535 13.966,70.022 z"
                         style="fill:url(#linearGradient7322);stroke:none"
                         id="path7440"
                         inkscape:connector-curvature="0" /></g></g></g></g><g
                 id="g7458"><g
                   id="g7456"><g
                     id="g7454"><g
                       id="g7452"><path
                         d="m 468.881,600 c -3.817,-23.649 -7.545,-46.733 -11.562,-69.19 -1.801,-10.012 -3.644,-19.949 -5.579,-29.786 -11.529,-58.538 -27.673,-117.172 -50.276,-159.244 -22.612,-42.188 -51.913,-67.278 -74.055,-82.298 -11.7,-7.928 -21.385,-13.546 -30.993,-19.669 -13.681,-8.727 -29.183,-19.116 -43.318,-30.578 C 225.12,186.609 195.905,154.152 165.16,104.9 c 0.579,-0.14 1.154,-0.316 1.732,-0.455 30.576,49.272 59.581,81.85 87.348,104.617 13.775,11.34 29.499,22.079 42.808,30.738 9.372,6.089 18.836,11.693 30.297,19.581 21.863,15.051 50.883,40.129 73.362,82.144 22.558,42.067 38.683,100.677 50.196,159.208 l 5.573,29.811 c 4.017,22.539 7.743,45.711 11.555,69.456 z"
                         style="fill:url(#linearGradient7338);stroke:none"
                         id="path7450"
                         inkscape:connector-curvature="0" /></g></g></g></g></g></g></g></g></g></g></svg>