<svg width="581" height="248" viewBox="0 0 581 248" fill="none" xmlns="http://www.w3.org/2000/svg">
<rect x="98" y="24" width="52" height="16" rx="8" fill="#27D8E3"/>
<rect x="101" y="26" width="12" height="12" rx="6" fill="#D9D9D9"/>
<rect x="170" y="128" width="52" height="16" rx="8" fill="#9747FF"/>
<rect x="173" y="130" width="12" height="12" rx="6" fill="#D9D9D9"/>
<rect x="247" y="178" width="35" height="16" rx="8" fill="#56F25C"/>
<rect x="250" y="180" width="12" height="12" rx="6" fill="#D9D9D9"/>
<rect x="345" y="232" width="52" height="16" rx="8" fill="#FCA464"/>
<rect x="348" y="234" width="12" height="12" rx="6" fill="#D9D9D9"/>
<rect x="342" y="28" width="35" height="16" rx="8" fill="#FB8EBC"/>
<rect x="345" y="30" width="12" height="12" rx="6" fill="#D9D9D9"/>
<rect x="435" width="74" height="16" rx="8" fill="#27D8E3"/>
<rect x="438" y="2" width="12" height="12" rx="6" fill="#D9D9D9"/>
<rect x="453" y="87" width="52" height="16" rx="8" fill="#82FF87"/>
<rect x="456" y="89" width="12" height="12" rx="6" fill="#D9D9D9"/>
<rect x="507" y="153" width="74" height="16" rx="8" fill="#CFB128"/>
<rect x="510" y="155" width="12" height="12" rx="6" fill="#D9D9D9"/>
<rect y="45" width="35" height="16" rx="8" fill="#9747FF"/>
<rect x="3" y="47" width="12" height="12" rx="6" fill="#D9D9D9"/>
<rect x="34" y="106" width="74" height="15" rx="7.5" fill="#CFB128"/>
<rect x="37" y="107.875" width="12" height="11.25" rx="5.625" fill="#D9D9D9"/>
</svg>
